<svg viewBox="0 0 16 16" fill="none" xmlns="http://www.w3.org/2000/svg">
<path d="M7.99991 0.660156C7.33245 0.660211 6.66521 0.825881 6.05658 1.15723L1.6474 3.55664C1.01155 3.90277 0.617123 4.57236 0.617188 5.30469C0.617245 6.03708 1.01168 6.70822 1.6474 7.05469L6.05658 9.45312C7.27359 10.1153 8.72623 10.1153 9.9433 9.45312L14.3525 7.05469C14.9883 6.70817 15.3827 6.03704 15.3828 5.30469C15.3829 4.57239 14.9884 3.90282 14.3525 3.55664L9.9433 1.15723C9.33477 0.825901 8.66737 0.660156 7.99991 0.660156ZM7.99991 1.82812C8.47844 1.82818 8.95701 1.94525 9.3935 2.18262L13.8027 4.58203C14.0675 4.72619 14.2148 4.99398 14.2148 5.30469C14.2148 5.61543 14.0675 5.88512 13.8027 6.0293L9.3935 8.42773C8.51078 8.90798 7.48898 8.90798 6.60636 8.42773L2.1972 6.0293C1.93235 5.88507 1.78517 5.61537 1.78516 5.30469C1.78516 4.99404 1.93239 4.72623 2.1972 4.58203L6.60636 2.18262C7.04295 1.94523 7.52139 1.82812 7.99991 1.82812Z" fill="currentColor"/>
<path d="M14.5288 7.80859L9.3916 10.6025C8.51087 11.0817 7.4601 11.0817 6.5791 10.6025L1.44189 7.80859C1.16029 7.65549 0.809427 7.75984 0.656737 8.04199C0.503963 8.32394 0.608631 8.67479 0.890136 8.82812L6.02735 11.6221C7.24898 12.2868 8.70207 12.2868 9.92383 11.6221L15.061 8.82812C15.3426 8.67491 15.447 8.32395 15.2944 8.04199C15.1416 7.75986 14.8104 7.65567 14.5288 7.80859Z" fill="currentColor"/>
<path d="M14.5288 10.4541L9.3916 13.248C8.51087 13.7272 7.4601 13.7272 6.5791 13.248L1.44189 10.4541C1.16029 10.301 0.809427 10.4053 0.656737 10.6875C0.503963 10.9694 0.608631 11.3203 0.890136 11.4736L6.02735 14.2676C7.24898 14.9323 8.70207 14.9323 9.92383 14.2676L15.061 11.4736C15.3426 11.3204 15.447 10.9695 15.2944 10.6875C15.1416 10.4053 14.8104 10.3012 14.5288 10.4541Z" fill="currentColor"/>
</svg>